<?xml version="1.0"?>
<svg xmlns="http://www.w3.org/2000/svg" height="512px" viewBox="-63 0 479 480" width="512px"><g><path d="m328.5 248h-88v-24c0-4.417969-3.582031-8-8-8h-16v-208c0-4.417969-3.582031-8-8-8h-32c-4.417969 0-8 3.582031-8 8v208h-16c-4.417969 0-8 3.582031-8 8v24h-88c-13.253906 0-24 10.746094-24 24v64 .472656c1.601562 27.800782 1.816406 104.261719-16.71875 123.917969-1.769531 2.226563-4.4375 3.550781-7.28125 3.609375-4.417969 0-8 3.582031-8 8s3.582031 8 8 8h304c9.382812 0 40-10.398438 40-144v-64c0-13.253906-10.746094-24-24-24zm-144-232h16v200h-16zm-24 216h64v16h-64zm-112 40c0-4.417969 3.582031-8 8-8h272c4.417969 0 8 3.582031 8 8v56h-288zm263.246094 192h-55.246094c7.566406-14.023438 16-40.257812 16-88h-16c0 61.480469-14.503906 82.742188-19.199219 88h-12.800781c7.566406-14.023438 16-40.257812 16-88h-16c0 61.480469-14.503906 82.742188-19.199219 88h-52.800781c7.566406-14.023438 16-40.257812 16-88h-16c0 61.480469-14.503906 82.742188-19.199219 88h-28.800781c7.566406-14.023438 16-40.257812 16-88h-16c0 61.480469-14.503906 82.742188-19.199219 88h-12.800781c7.566406-14.023438 16-40.257812 16-88h-16c0 61.480469-14.503906 82.742188-19.199219 88h-20.433593c17.519531-29.777344 16.914062-95.480469 16-120h287.632812c-1.054688 106.550781-22.398438 118.960938-24.753906 120zm0 0" data-original="#000000" class="active-path" data-old_color="#000000" fill="#979797"/><path d="m312.5 280h-24v16h16v16h16v-24c0-4.417969-3.582031-8-8-8zm0 0" data-original="#000000" class="active-path" data-old_color="#000000" fill="#979797"/><path d="m248.5 160c13.253906 0 24 10.746094 24 24 0 4.417969 3.582031 8 8 8s8-3.582031 8-8c0-13.253906 10.746094-24 24-24 4.417969 0 8-3.582031 8-8s-3.582031-8-8-8c-13.253906 0-24-10.746094-24-24 0-4.417969-3.582031-8-8-8s-8 3.582031-8 8c0 13.253906-10.746094 24-24 24-4.417969 0-8 3.582031-8 8s3.582031 8 8 8zm32-16.246094c2.332031 3.136719 5.109375 5.914063 8.246094 8.246094-3.136719 2.332031-5.914063 5.109375-8.246094 8.246094-2.332031-3.136719-5.109375-5.914063-8.246094-8.246094 3.136719-2.332031 5.914063-5.109375 8.246094-8.246094zm0 0" data-original="#000000" class="active-path" data-old_color="#000000" fill="#979797"/><path d="m64.5 200c13.253906 0 24 10.746094 24 24 0 4.417969 3.582031 8 8 8s8-3.582031 8-8c0-13.253906 10.746094-24 24-24 4.417969 0 8-3.582031 8-8s-3.582031-8-8-8c-13.253906 0-24-10.746094-24-24 0-4.417969-3.582031-8-8-8s-8 3.582031-8 8c0 13.253906-10.746094 24-24 24-4.417969 0-8 3.582031-8 8s3.582031 8 8 8zm32-16.246094c2.332031 3.136719 5.109375 5.914063 8.246094 8.246094-3.136719 2.332031-5.914063 5.109375-8.246094 8.246094-2.332031-3.136719-5.109375-5.914063-8.246094-8.246094 3.136719-2.332031 5.914063-5.109375 8.246094-8.246094zm0 0" data-original="#000000" class="active-path" data-old_color="#000000" fill="#979797"/><path d="m64.5 280h16v16h-16zm0 0" data-original="#000000" class="active-path" data-old_color="#000000" fill="#979797"/><path d="m240.5 280h32v16h-32zm0 0" data-original="#000000" class="active-path" data-old_color="#000000" fill="#979797"/></g> </svg>
