<?xml version="1.0"?>
<svg xmlns="http://www.w3.org/2000/svg" height="512px" viewBox="0 0 512 512" width="512px" class=""><g><path d="m504.5 350.5c4.144531 0 7.5-3.359375 7.5-7.5v-335.5c0-4.140625-3.355469-7.5-7.5-7.5h-156.640625c-4.144531 0-7.5 3.359375-7.5 7.5v211.488281l-149.546875-149.542969c-2.929688-2.929687-7.679688-2.929687-10.605469 0l-110.761719 110.761719c-2.925781 2.921875-2.886718 7.8125.082032 10.6875l24.25 23.507813c3.761718 3.644531 8.964844 1.808594 12.183594-1.414063l103.589843-103.59375 35.996094 35.996094-100.15625 100.15625-15.46875-15.46875c-6.636719-6.636719-17.546875 3.667969-10.605469 10.605469l99.675782 99.675781h-211.492188c-4.140625 0-7.5 3.355469-7.5 7.5v156.640625c0 4.140625 3.359375 7.5 7.5 7.5h255c9.675781 0 9.675781-15 0-15h-15.785156v-128.914062l50.90625 50.902343v83.191407c0 4.59375 3.445312 9.820312 8.378906 9.820312h120.179688c9.761718 0 19.136718-1.660156 27.886718-4.675781.25-.085938.503906-.167969.753906-.257813.859376-.300781 1.703126-.628906 2.546876-.957031.554687-.214844 1.105468-.425781 1.65625-.652344.539062-.226562 1.070312-.464843 1.605468-.699219.839844-.363281 1.675782-.738281 2.503906-1.132812.230469-.109375.460938-.226562.6875-.339844 8.328126-4.054687 16.136719-9.511718 23.042969-16.421875.222657-.21875.421875-.453125.609375-.695312 15.160156-15.484375 24.527344-36.660157 24.527344-59.988281v-39.179688c0-9.675781-15-9.675781-15 0v39.179688c0 27.90625-16.230469 52.085937-39.738281 63.621093-19.402344 9.449219-42.769531 9.464844-62.167969-.003906-23.507812-11.535156-39.734375-35.710937-39.734375-63.617187v-113.558594h141.640625v30.378906c0 4.140625 3.355469 7.5 7.5 7.5zm-405.417969-151.847656-13.644531-13.226563 100.070312-100.070312 13.4375 13.433593zm196.722657 197.308594 44.554687-44.554688v74.773438c0 5.40625.523437 10.6875 1.484375 15.820312zm44.554687-65.769532-55.164063 55.160156-35.992187-35.996093 91.15625-91.15625zm-1.609375-91.59375-100.152344 100.152344-35.996094-35.996094 100.152344-100.152344zm16.609375-123.691406h141.640625v50.902344h-141.640625zm141.640625-15h-141.640625v-50.90625h141.640625zm0 80.90625v50.902344h-141.640625v-50.902344zm0-165.8125v19h-141.640625v-19zm-240.847656 140.996094 35.996094 35.996094-100.15625 100.15625-35.996094-35.996094zm-141.246094 199.363281h50.902344v141.640625h-50.902344zm-15 141.640625h-50.90625v-141.640625h50.90625zm-84.90625-141.640625h19v141.640625h-19zm165.8125 141.640625v-141.640625h50.902344v141.640625zm184.683594-10.136719c3.820312 3.824219 7.929687 7.1875 12.238281 10.136719h-65.113281v-63.011719zm-10.136719-189.242187v-50.90625h141.640625v50.90625zm0 0" data-original="#000000" class="active-path" data-old_color="#000000" fill="#979797"/><path d="m402.179688 438.5c0 13.234375 10.765624 24 24 24 13.234374 0 24-10.765625 24-24s-10.765626-24-24-24c-13.234376 0-24 10.765625-24 24zm33 0c0 4.960938-4.035157 9-9 9-4.960938 0-9-4.039062-9-9s4.039062-9 9-9c4.964843 0 9 4.039062 9 9zm0 0" data-original="#000000" class="active-path" data-old_color="#000000" fill="#979797"/></g> </svg>
