<?xml version="1.0"?>
<svg xmlns="http://www.w3.org/2000/svg" xmlns:xlink="http://www.w3.org/1999/xlink" version="1.1" id="Layer_1" x="0px" y="0px" viewBox="0 0 512.001 512.001" style="enable-background:new 0 0 512.001 512.001;" xml:space="preserve" width="512px" height="512px" class=""><g><g>
	<g>
		<g>
			<path d="M456.093,494.345h-4.461c0.98-2.764,1.518-5.733,1.518-8.828c0-6.545-2.383-12.714-6.592-17.481     c0.467-1.982,0.707-4.016,0.707-6.059c0-11.508-7.38-21.319-17.655-24.964V246.659c1.204-0.425,2.336-1.109,3.3-2.072     l29.425-29.425c3.447-3.447,3.447-9.036,0-12.485L262.243,2.585c-3.449-3.446-9.037-3.446-12.485,0L135.357,116.986v-13.998     c0-4.876-3.951-8.828-8.828-8.828h-35.31c-4.876,0-8.828,3.951-8.828,8.828v66.964l-32.726,32.726     c-3.447,3.45-3.447,9.038,0,12.485l29.425,29.425c0.963,0.962,2.096,1.645,3.3,2.072v190.355     c-10.275,3.645-17.655,13.457-17.655,24.964c0,2.043,0.239,4.078,0.707,6.059c-4.208,4.767-6.592,10.934-6.592,17.481     c0,3.094,0.538,6.064,1.518,8.828h-4.461c-4.876,0-8.828,3.951-8.828,8.828c0,4.876,3.951,8.828,8.828,8.828h400.185     c4.876,0,8.828-3.951,8.828-8.828C464.921,498.297,460.968,494.345,456.093,494.345z M100.046,111.815h17.655v22.826     l-17.655,17.655V111.815z M68.392,208.919l29.063-29.062c0.005-0.005,0.008-0.009,0.013-0.013l35.297-35.297     c0.005-0.005,0.008-0.009,0.013-0.013L256.001,21.311L443.61,208.92l-16.942,16.941L262.242,61.435     c-1.724-1.723-3.984-2.585-6.243-2.585c-2.259,0-4.519,0.862-6.243,2.585L85.334,225.861L68.392,208.919z M144.182,494.345     H85.334c-4.868,0-8.828-3.959-8.828-8.828c0-3.018,1.531-5.798,4.095-7.438c3.95-2.526,5.237-7.698,2.93-11.78     c-0.757-1.341-1.141-2.794-1.141-4.323c0-4.868,3.959-8.828,8.828-8.828c2.768,0,4.723,1.232,5.876,2.267     c3.354,3.01,8.435,3.01,11.789,0c1.152-1.035,3.108-2.267,5.876-2.267s4.723,1.232,5.876,2.267c3.354,3.01,8.434,3.01,11.789,0     c1.152-1.035,3.109-2.267,5.876-2.267c4.868,0,8.828,3.959,8.828,8.828c0,1.529-0.384,2.983-1.141,4.323     c-2.307,4.082-1.02,9.254,2.93,11.78c2.565,1.64,4.095,4.421,4.095,7.438C153.009,490.385,149.05,494.345,144.182,494.345z      M282.483,494.345h-17.655v-26.483c0-4.876-3.951-8.828-8.828-8.828c-4.876,0-8.828,3.951-8.828,8.828v26.483h-17.655v-52.966     h52.966V494.345z M347.927,468.037c-4.208,4.767-6.592,10.935-6.592,17.481c0,3.094,0.538,6.064,1.518,8.828h-42.714v-61.793     c0-4.876-3.951-8.828-8.828-8.828H220.69c-4.876,0-8.828,3.951-8.828,8.828v61.793h-42.714c0.98-2.764,1.518-5.733,1.518-8.828     c0-6.545-2.383-12.714-6.592-17.481c0.467-1.982,0.707-4.016,0.707-6.059c0-14.602-11.881-26.483-26.483-26.483     c-4.118,0-8.139,0.961-11.77,2.771c-3.631-1.81-7.652-2.771-11.77-2.771c-4.118,0-8.139,0.961-11.77,2.771     c-0.956-0.477-1.94-0.89-2.943-1.248V236.117L256.001,80.162l155.954,155.956v200.902c-1.004,0.357-1.988,0.77-2.943,1.247     c-3.631-1.81-7.652-2.771-11.77-2.771s-8.139,0.961-11.77,2.771c-3.631-1.81-7.652-2.771-11.77-2.771     c-14.602,0-26.483,11.881-26.483,26.483C347.219,464.021,347.458,466.056,347.927,468.037z M426.667,494.345h-58.85     c-4.868,0-8.828-3.959-8.828-8.828c0-3.018,1.531-5.798,4.096-7.438c3.95-2.526,5.237-7.698,2.93-11.78     c-0.757-1.341-1.141-2.794-1.141-4.323c0-4.868,3.959-8.828,8.828-8.828c2.768,0,4.723,1.232,5.876,2.267     c3.354,3.01,8.435,3.01,11.789,0c1.152-1.035,3.108-2.267,5.876-2.267c2.768,0,4.723,1.232,5.876,2.267     c3.354,3.01,8.435,3.01,11.789,0c1.152-1.035,3.108-2.267,5.876-2.267c4.868,0,8.828,3.959,8.828,8.828     c0,1.529-0.384,2.983-1.141,4.323c-2.307,4.082-1.021,9.254,2.93,11.78c2.565,1.64,4.095,4.421,4.095,7.438     C435.494,490.385,431.535,494.345,426.667,494.345z" data-original="#000000" class="active-path" data-old_color="#000000" fill="#979797"/>
			<path d="M256.001,205.976c14.602,0,26.483-11.881,26.483-26.483s-11.881-26.483-26.483-26.483     c-14.602,0-26.483,11.881-26.483,26.483C229.518,194.097,241.399,205.976,256.001,205.976z M256.001,170.666     c4.868,0,8.828,3.959,8.828,8.828c0,4.868-3.959,8.828-8.828,8.828c-4.868,0-8.828-3.959-8.828-8.828     C247.173,174.627,251.132,170.666,256.001,170.666z" data-original="#000000" class="active-path" data-old_color="#000000" fill="#979797"/>
			<path d="M285.426,376.643h-2.943V338.39c0-4.876-3.951-8.828-8.828-8.828h-35.31c-4.876,0-8.828,3.951-8.828,8.828v38.253h-2.943     c-4.876,0-8.828,3.951-8.828,8.828c0,4.876,3.951,8.828,8.828,8.828h58.851c4.876,0,8.828-3.951,8.828-8.828     C294.254,380.595,290.301,376.643,285.426,376.643z M264.828,376.643h-17.655v-29.425h17.655V376.643z" data-original="#000000" class="active-path" data-old_color="#000000" fill="#979797"/>
			<path d="M388.415,385.471c0-4.876-3.952-8.828-8.828-8.828h-2.943V338.39c0-4.876-3.951-8.828-8.828-8.828h-35.31     c-4.876,0-8.828,3.951-8.828,8.828v38.253h-2.943c-4.876,0-8.828,3.951-8.828,8.828c0,4.876,3.951,8.828,8.828,8.828h58.851     C384.463,394.299,388.415,390.347,388.415,385.471z M358.989,376.643h-17.655v-29.425h17.655V376.643z" data-original="#000000" class="active-path" data-old_color="#000000" fill="#979797"/>
			<path d="M192.442,376.643h-2.943V338.39c0-4.876-3.951-8.828-8.828-8.828h-35.31c-4.876,0-8.828,3.951-8.828,8.828v38.253h-2.943     c-4.876,0-8.828,3.951-8.828,8.828c0,4.876,3.951,8.828,8.828,8.828h58.851c4.876,0,8.828-3.951,8.828-8.828     C201.269,380.595,197.317,376.643,192.442,376.643z M171.844,376.643h-17.655v-29.425h17.655V376.643z" data-original="#000000" class="active-path" data-old_color="#000000" fill="#979797"/>
			<path d="M285.426,282.482h-2.943v-38.253c0-4.876-3.951-8.828-8.828-8.828h-35.31c-4.876,0-8.828,3.951-8.828,8.828v38.253     h-2.943c-4.876,0-8.828,3.951-8.828,8.828c0,4.876,3.951,8.828,8.828,8.828h58.851c4.876,0,8.828-3.951,8.828-8.828     C294.254,286.435,290.301,282.482,285.426,282.482z M264.828,282.482h-17.655v-29.425h17.655V282.482z" data-original="#000000" class="active-path" data-old_color="#000000" fill="#979797"/>
			<path d="M320.736,300.137h58.851c4.876,0,8.828-3.951,8.828-8.828c0-4.875-3.952-8.828-8.828-8.828h-2.943v-38.253     c0-4.876-3.951-8.828-8.828-8.828h-35.31c-4.876,0-8.828,3.951-8.828,8.828v38.253h-2.943c-4.876,0-8.828,3.951-8.828,8.828     C311.909,296.186,315.86,300.137,320.736,300.137z M341.334,253.057h17.655v29.425h-17.655V253.057z" data-original="#000000" class="active-path" data-old_color="#000000" fill="#979797"/>
			<path d="M192.442,282.482h-2.943v-38.253c0-4.876-3.951-8.828-8.828-8.828h-35.31c-4.876,0-8.828,3.951-8.828,8.828v38.253     h-2.943c-4.876,0-8.828,3.951-8.828,8.828c0,4.876,3.951,8.828,8.828,8.828h58.851c4.876,0,8.828-3.951,8.828-8.828     C201.269,286.435,197.317,282.482,192.442,282.482z M171.844,282.482h-17.655v-29.425h17.655V282.482z" data-original="#000000" class="active-path" data-old_color="#000000" fill="#979797"/>
		</g>
	</g>
</g></g> </svg>
